<svg width="1568" height="903" fill="none" xmlns="http://www.w3.org/2000/svg"><path d="M913.788 791.561c-213.286 81.495-420.929 117.132-584.212 108.888-81.642-4.122-152.17-19.214-206.764-45.009-54.59-25.794-93.22-62.275-111.14-109.172C-6.245 699.37-1.785 646.425 21.696 590.8c23.483-55.627 65.978-113.904 124.069-171.417 116.183-115.027 294.684-226.932 507.97-308.427C867.02 29.461 1074.66-6.176 1237.95 2.068c81.64 4.122 152.17 19.214 206.76 45.01 54.59 25.793 93.22 62.274 111.14 109.171 17.92 46.898 13.46 99.843-10.02 155.468-23.49 55.627-65.98 113.904-124.07 171.418-116.19 115.026-294.69 226.931-507.972 308.426z" stroke="#C4C4C4"/></svg>