<svg width="42" height="25" fill="none" xmlns="http://www.w3.org/2000/svg"><path d="M13.063 10.5l-.688-4.625c0-1.25.438-2.333 1.313-3.25C15.27.917 16.625.062 17.75.062c1.083 0 1.958.417 2.625 1.25.667.875 1 1.917 1 3.125 0 1.209-.146 2.375-.438 3.5-.291 1.125-.812 2.313-1.562 3.563-1.75 2.875-4.52 5.792-8.313 8.75-2.583 1.958-4.666 3.208-6.25 3.75-1.625.542-2.625.813-3 .813-.75 0-1.125-.292-1.125-.875 0-.375.584-.771 1.75-1.188 1.167-.375 2.417-1.042 3.75-2A20.401 20.401 0 009.75 17.5c2.208-2.583 3.313-4.917 3.313-7zm20.312 0l-.688-4.625c0-1.25.438-2.333 1.313-3.25C35.583.917 36.938.062 38.063.062c1.083 0 1.958.417 2.624 1.25.667.875 1 1.917 1 3.125a13.87 13.87 0 01-.437 3.5c-.292 1.125-.833 2.313-1.625 3.563-1.708 2.875-4.458 5.792-8.25 8.75-2.625 2-4.708 3.25-6.25 3.75-1.583.542-2.563.813-2.938.813-.791 0-1.187-.292-1.187-.875 0-.375.583-.771 1.75-1.188 1.167-.375 2.417-1.042 3.75-2A18.621 18.621 0 0030 17.5c2.25-2.583 3.375-4.917 3.375-7z" fill="#fff" fill-opacity=".3"/></svg>